<?xml version="1.0" standalone="no"?>
<!DOCTYPE svg PUBLIC "-//W3C//DTD SVG 20010904//EN"
 "http://www.w3.org/TR/2001/REC-SVG-20010904/DTD/svg10.dtd">
<svg version="1.0" xmlns="http://www.w3.org/2000/svg"
 width="545.000000pt" height="545.000000pt" viewBox="0 0 545.000000 545.000000"
 preserveAspectRatio="xMidYMid meet">
<metadata>
Created by potrace 1.11, written by Peter Selinger 2001-2013
</metadata>
<g transform="translate(0.000000,545.000000) scale(0.100000,-0.100000)"
fill="#000000" stroke="none">
<path d="M1940 4884 c-146 -39 -281 -152 -356 -299 -82 -159 -99 -244 -119
-614 -16 -281 -17 -285 -41 -304 -53 -41 -68 -90 -72 -240 -3 -88 0 -147 7
-165 9 -23 7 -34 -12 -72 l-23 -45 -49 12 c-37 9 -60 10 -90 2 -22 -6 -233
-126 -468 -267 -396 -236 -430 -259 -454 -300 -19 -32 -26 -58 -26 -96 0 -61
19 -102 67 -144 37 -32 51 -36 178 -51 91 -11 122 -29 168 -101 73 -114 88
-256 50 -485 -74 -447 59 -713 405 -807 115 -31 364 -31 480 1 162 43 317 136
401 239 50 61 108 174 119 233 l7 36 66 -33 c168 -82 365 -142 547 -164 140
-18 434 -8 560 19 157 33 278 76 430 151 179 89 302 177 441 315 230 229 378
485 454 788 42 169 53 283 47 485 -11 331 -98 608 -275 873 -135 201 -280 346
-481 481 -248 166 -510 256 -809 279 l-136 10 -37 40 c-20 21 -41 39 -47 39
-6 0 -14 9 -17 20 -10 30 -54 79 -87 96 -29 15 -242 43 -331 44 -27 0 -56 -4
-65 -9 -12 -6 -56 0 -137 20 -132 32 -210 36 -295 13z m250 -178 c154 -40 223
-49 237 -30 10 13 26 14 137 3 l125 -12 11 -31 c12 -35 58 -86 77 -86 7 0 13
-9 13 -21 0 -20 -3 -20 -137 -15 -221 10 -265 16 -259 32 8 22 -29 26 -196 22
-134 -3 -158 -6 -194 -25 -53 -28 -100 -82 -113 -130 -8 -27 -4 -349 15 -1143
13 -608 26 -1274 27 -1480 l2 -375 -32 -68 c-82 -172 -267 -273 -518 -284
-152 -7 -244 8 -335 54 -81 40 -131 93 -162 172 -33 84 -36 265 -9 434 36 221
24 362 -44 504 -38 81 -116 171 -180 208 -39 23 -122 43 -199 48 -22 1 -41 7
-42 12 -2 6 85 63 194 128 108 66 290 175 404 244 117 71 214 123 222 120 12
-5 11 -15 -5 -67 -27 -89 -24 -123 22 -230 58 -134 104 -279 131 -412 33 -162
32 -438 -1 -583 -13 -55 -25 -129 -28 -164 -6 -74 6 -91 64 -91 60 0 61 1 94
506 29 436 30 459 13 471 -10 7 -25 13 -35 13 -34 0 -40 23 -33 129 4 56 12
105 18 108 6 4 26 9 46 13 l35 5 9 84 c7 76 7 86 -10 98 -10 7 -25 13 -35 13
-32 0 -38 22 -31 127 4 56 11 105 15 109 4 4 24 10 44 13 l38 6 6 65 c7 81 4
88 -35 98 l-31 8 0 106 c1 114 10 138 51 138 13 0 27 8 32 18 5 9 15 132 21
272 15 307 25 424 47 510 38 151 132 290 230 339 94 47 152 51 284 17z m625
-426 l0 -95 -142 -3 -143 -3 -2 -577 -3 -577 -97 -3 -98 -3 0 581 0 580 -145
0 -145 0 0 100 0 100 388 -2 387 -3 0 -95z m487 -318 c79 -38 149 -110 186
-190 l27 -57 0 -255 c0 -287 -3 -304 -80 -389 l-38 -42 31 -32 c17 -18 44 -59
59 -92 23 -50 28 -76 31 -157 l4 -98 -95 0 -94 0 -7 76 c-9 107 -34 151 -109
188 l-58 29 -53 -16 c-63 -20 -111 -51 -140 -90 -16 -22 -22 -47 -25 -108 l-3
-79 -99 0 -99 0 0 495 c0 328 4 512 11 547 30 142 127 246 274 295 24 8 74 12
126 10 74 -3 96 -8 151 -35z m628 -852 c5 -487 6 -517 24 -547 47 -77 98 -93
297 -93 l159 0 0 -100 0 -100 -132 0 c-180 1 -265 13 -335 49 -72 36 -146 113
-181 189 l-27 57 -3 533 -3 533 98 -3 98 -3 5 -515z m-424 -598 c-4 -15 -73
-277 -155 -582 l-148 -555 -86 -3 c-58 -2 -87 1 -87 8 0 10 294 1115 305 1148
3 8 31 12 90 12 l87 0 -6 -28z m564 -592 c0 -30 -17 -51 -172 -207 -95 -95
-177 -173 -182 -173 -14 0 -116 101 -116 115 0 6 59 69 130 140 l130 130 -132
132 -133 133 60 60 60 61 177 -179 c160 -160 178 -181 178 -212z m-1200 325
l55 -55 -135 -135 -135 -135 133 -133 132 -132 -60 -60 -60 -60 -175 175
c-232 232 -232 199 -5 423 93 92 175 167 183 167 7 0 37 -25 67 -55z"/>
<path d="M3067 3795 c-50 -17 -85 -50 -108 -100 -17 -36 -19 -69 -19 -329 0
-248 2 -287 15 -283 8 4 67 22 132 43 143 44 187 67 216 114 20 32 22 51 25
205 4 194 -3 238 -51 292 -58 65 -132 86 -210 58z"/>
</g>
</svg>
